<?xml version="1.0" encoding="UTF-8"?>
<!DOCTYPE svg PUBLIC "-//W3C//DTD SVG 1.1//EN" "http://www.w3.org/Graphics/SVG/1.1/DTD/svg11.dtd">
<!-- Creator: CorelDRAW -->
<svg xmlns="http://www.w3.org/2000/svg" xml:space="preserve" width="24px" height="24px"
     shape-rendering="geometricPrecision" text-rendering="geometricPrecision" image-rendering="optimizeQuality"
     fill-rule="evenodd" clip-rule="evenodd"
     viewBox="0 0 640 640"
>
 <g id="Layer_x0020_1">
  <metadata id="CorelCorpID_0Corel-Layer"/>
  <path fill="white" fill-rule="nonzero" d="M199.715 241.137l205.833 -101.564c-1.31104,-7.02765 -1.98428,-14.3033 -1.98428,-21.7207 0,-65.2803 52.9377,-118.218 118.218,-118.218 65.2921,0 118.23,52.9377 118.23,118.218 0,65.2921 -52.9377,118.218 -118.23,118.218 -25.8074,0 -49.7014,-8.25601 -69.1544,-22.2995l-216.357 106.761c0.106301,2.05514 0.165356,4.14572 0.165356,6.22449 0,3.62603 -0.177168,7.21662 -0.50788,10.7718l199.018 98.1981c21.1184,-19.7365 49.4888,-31.7957 80.6703,-31.7957 65.2803,0 118.218,52.9258 118.218,118.218 0,65.2803 -52.9377,118.218 -118.218,118.218 -65.2803,0 -118.218,-52.9377 -118.218,-118.218 0,-2.49216 0.0826782,-4.9725 0.224412,-7.41741l-201.262 -99.3083c-20.8349,18.3782 -48.1778,29.5515 -78.1427,29.5515 -65.2921,0 -118.23,-52.9377 -118.23,-118.218 0,-65.2921 52.9377,-118.218 118.23,-118.218 31.5949,0 60.296,12.4017 81.4971,32.5988z"/>
 </g>
</svg>
