<?xml version="1.0" encoding="UTF-8"?>
<svg width="803.2" height="360.51" version="1.1" viewBox="0 0 803.2 360.51" xml:space="preserve" xmlns="http://www.w3.org/2000/svg" xmlns:cc="http://creativecommons.org/ns#" xmlns:dc="http://purl.org/dc/elements/1.1/" xmlns:rdf="http://www.w3.org/1999/02/22-rdf-syntax-ns#"><metadata><rdf:RDF><cc:Work rdf:about=""><dc:format>image/svg+xml</dc:format><dc:type rdf:resource="http://purl.org/dc/dcmitype/StillImage"/><dc:title/></cc:Work></rdf:RDF></metadata>
<style type="text/css">
	.st0{fill:#231F20;}
</style>
<g transform="translate(-339 -198.22)" fill="#231f20">
	<path class="st0" d="m834.2 511.2h-4.5l5.5 11v6.2h4.2v-6.2l5.5-11h-4.5l-3.2 7.5zm-6.4 0h-14.4v3.2h5.1v14h4.2v-14h5.2v-3.2zm-17.4 0h-4.1v17.2h4.1zm-8.3 0h-4.1v10.7l-6.1-10.7h-4.1v17.2h4.1v-10.7l6.1 10.7h4.1zm-27.4 3.2h2.6c0.8 0 1.4 0.2 1.8 0.6s0.6 1 0.6 1.7-0.2 1.3-0.6 1.7-1 0.6-1.8 0.6h-2.6zm5.3 14h4.4v-0.2l-3.6-7c1-0.5 1.8-1.1 2.3-1.9s0.7-1.8 0.7-3c0-1.7-0.6-2.9-1.7-3.8-1.2-0.9-2.7-1.4-4.8-1.4h-6.8v17.2h4.2v-6.1h2.2zm-13.7-10.4h-6.5v-3.6h7.7v-3.2h-11.9v17.2h11.9v-3.2h-7.7v-4.1h6.5zm-13.7-6.8h-14.4v3.2h5.1v14h4.1v-14h5.2zm-18 6.8h-6.5v-3.6h7.7v-3.2h-11.9v17.2h11.9v-3.2h-7.7v-4.1h6.5zm-21.6-2 1.9 6h-3.7zm3.9 12.4h4.5l-6.4-17.2h-3.9l-6.3 17.2h4.4l1-3.2h5.7zm-30.6-17.2h-4.5l5.5 11v6.2h4.2v-6.2l5.5-11h-4.5l-3.2 7.5zm-15.3 3.2h2c0.9 0 1.6 0.2 2 0.5s0.6 0.8 0.6 1.6c0 0.6-0.2 1.1-0.6 1.4s-1 0.5-1.9 0.5h-2.1zm2.9 6.7c1.4 0 2.1 0.7 2.1 2.2 0 0.6-0.2 1.1-0.6 1.4s-1 0.5-1.7 0.5h-2.7v-4.1zm0 7.3c2.1 0 3.7-0.4 4.7-1.3 1.1-0.8 1.6-2.1 1.6-3.8 0-0.9-0.2-1.7-0.7-2.4-0.5-0.6-1.2-1.1-2.1-1.3 0.8-0.3 1.4-0.8 1.8-1.4s0.6-1.4 0.6-2.3c0-1.5-0.6-2.7-1.7-3.5-1.2-0.8-2.8-1.2-5.1-1.2h-6.2v17.2zm-24.8-14c1.2 0 2.2 0.4 2.8 1.3 0.6 0.8 1 2.1 1 3.8v0.7c0 1.7-0.3 2.9-1 3.8-0.6 0.8-1.6 1.3-2.7 1.3h-1.4v-10.8h1.3zm0.1 14c1.5 0 2.8-0.4 4-1.1s2.1-1.7 2.8-2.9 1-2.7 1-4.2v-0.8c0-1.6-0.4-3-1-4.2-0.7-1.3-1.6-2.2-2.8-2.9s-2.6-1-4.1-1h-5.5v17.2h5.6zm-9.9-10.4h-6.5v-3.6h7.7v-3.2h-11.9v17.2h11.9v-3.2h-7.7v-4.1h6.5zm-23.6-3.6h2.6c0.8 0 1.4 0.2 1.8 0.6s0.6 1 0.6 1.7-0.2 1.3-0.6 1.7-1 0.6-1.8 0.6h-2.6zm5.2 14h4.4v-0.2l-3.6-7c1-0.5 1.8-1.1 2.3-1.9s0.7-1.8 0.7-3c0-1.7-0.6-2.9-1.7-3.8-1.2-0.9-2.7-1.4-4.8-1.4h-6.8v17.2h4.2v-6.1h2.2zm-13.6-10.4h-6.5v-3.6h7.7v-3.2h-11.9v17.2h11.9v-3.2h-7.7v-4.1h6.5zm-22.1-6.8h-3.5l-2.4 10.8-2-10.8h-4.1l3.7 17.2h4.3l2.3-9.8 2.3 9.8h4.3l3.7-17.2h-4.1l-2 10.8zm-18.7 9c0 1.7-0.3 3-0.9 3.8-0.6 0.9-1.4 1.3-2.4 1.3-1.1 0-1.9-0.5-2.5-1.4s-0.8-2.2-0.8-3.9v-1.3c0.1-3.1 1.2-4.7 3.3-4.7 1.1 0 1.9 0.4 2.5 1.3s0.9 2.2 0.9 3.9v1zm4.3-0.9c0-1.7-0.3-3.1-1-4.4-0.6-1.3-1.5-2.3-2.7-3-1.1-0.7-2.4-1-3.9-1s-2.8 0.4-3.9 1.1c-1.2 0.7-2 1.7-2.7 3s-0.9 2.8-0.9 4.5v1c0 1.6 0.4 3.1 1 4.3 0.6 1.3 1.5 2.2 2.7 2.9 1.1 0.7 2.4 1 3.9 1s2.8-0.3 3.9-1 2-1.7 2.7-3c0.6-1.3 0.9-2.8 0.9-4.5zm-27.6-4.9h2.8c0.7 0 1.3 0.3 1.8 0.7 0.4 0.5 0.6 1.1 0.6 1.9 0 0.7-0.2 1.3-0.6 1.7s-1 0.6-1.8 0.6h-2.7v-4.9zm2.7 8.1c2.1 0 3.7-0.5 4.9-1.5s1.8-2.3 1.8-4c0-1.1-0.3-2.1-0.8-3-0.6-0.9-1.3-1.6-2.4-2.1-1-0.5-2.2-0.7-3.5-0.7h-6.9v17.2h4.2v-5.8h2.7z"/>
	<path class="st0" d="m890.9 489.6h4.7c7.4 0.7 14.2 4.4 19.3 9.8 10.5 11 16.3 26.5 29.6 34.7 9.7 5.9 23.2 1.1 27.9-8.9h7.3c-3.3 10.2-13 17.5-23.6 18.5h-3.9c-6.5-0.5-12.8-3-17.8-7.4-7.2-6.1-11.8-14.4-17.3-21.8-4.8-6.6-9.7-13.9-17.6-16.9-9.8-3.7-21.7 2.1-25.3 11.8-3.1 8-0.6 18 6.4 23.1 5.3 4.1 12.6 5.6 18.9 3.2 7-2.5 12.2-8.3 16.2-14.4 1.6 2.3 3.1 4.5 4.6 6.8-6.2 7.8-14.8 14.5-25.1 15.5h-4.2c-12.9-0.9-24.1-11.9-25-24.8v-4.2c0.9-13 12-24.1 24.9-25"/>
	<path class="st0" d="m951.9 489.6h3.9c13 0.9 24.1 12 25.2 25v6.6c-10.7 0.1-21.5 0-32.2 0v-5.8h25.5c-0.6-3.4-1.4-7-3.4-9.9-5-7.6-15.5-10.7-23.8-7.4-6.7 2.5-11.7 7.9-15.6 13.7-1.5-2.1-3-4.3-4.4-6.5 5.9-7.9 14.5-14.8 24.8-15.7"/>
	
</g><g fill="#231f20">
<path class="st0" d="m315.5 15h-25v40.8h26.2v-5.4h-20.4v-12.6h16.6v-5.4h-16.6v-12h19.1v-5.4zm-72.3 40.8h5.9v-18.1h19.2v18.1h5.9v-40.8h-5.9v17.2h-19.1v-17.2h-5.9v40.8zm-30.5 0h6v-35.4h12.7v-5.4h-31.4v5.4h12.7z"/>

<path class="st0" d="m650.5 93.113h-16v88h16zm-0.6-26.3h-15.7v15.7h15.7zm-376.6 111.5v-54.2c0-2.8-0.3-5.5-0.7-8h-17c1.2 2.6 1.8 5.6 1.8 8.8001v17.4c0 10.8-5.7 18.6-20.8 18.6s-20.7-7.9-20.7-18.6v-17.3c0-10.8 5.7-18.6 20.7-18.6 4.5 0 8 0.8 11 2v-15.8c-3.3-0.6-6.9-1-11-1-25.3 0-36.6 13-36.6 32.5v19.5c0 19.3 9.5 32.2 31 32.2 15.4 0 22-2.9 26.5-8.3v10.8c0 10.5-5.1 18.3-21.4 18.3-12.6 0-20.1-5.6-20.1-13.8h-15.5v1.3c0 17.1 14.4 27.1 34.9 27.1h2.3c21.7 0.1 35.6-10.1 35.6-32.9m72.1-72.1h7.2v-14.6h-6c-30.8 0-41 8.1-41 37.2v52.3h16v-52.1c-0.1-18.8 4.9-22.8 23.8-22.8m101 55.5c0.8-2.8 1.3-5.8 1.3-9.1v-28.9c0-19.3-11-32.2-33.2-32.2h-2.9c-23.1 0-34 9.8-34 27.8h15.5c0-9.5001 8.1-13.2 19-13.2 13.9 0 19.6 7.2 19.6 17.3v7.5c-4.7-1.9-11.6-3.5-23-3.5-25.3 0-34.1 10.5-34.1 26.7v1.5c0 18.2 13.3 26.9 34.4 26.9h3.2c3.1 0 6.1-0.3 9-0.7v-14.7c-2.9 0.9-6.2 1.5-10.2 1.5-13 0-20.5-4.2-20.5-13.5v-1.1c0-9.4 5.9-13.5 20.5-13.5 15.1 0 20.7 4.1 20.7 13.5v0.9c0 2.5-0.9 4.9-2.4 6.9h17.1zm37.2-68.6h-11.4v13.9h11.1v74.1h16v-74.1h26.9v-13.9h-26.7c1.3-10.8 8.2-12.9 25.6-12.9h1v-13.3h-5.6c-24.6-0.1-35 5.8-36.9 26.2m114.4-26.3c-24.8 0-35.1 5.9-37.1 26.2h-11.4v14h11.1v74.1h16v-74.1h26.9v-13.9h-26.7c1.3-10.8 8.2-12.9 25.6-12.9h1v-13.3h-5.4zm112.9 40.2h26.8v-13.9h-26.8v-18.5h-16v18.5h-12.6v13.9h12.6v38.2c0 4 0.2 7.6 0.6 10.8h16.2c-0.5-2.5-0.8-5.7-0.8-9.5zm17.3 74.1h10.4v-14.6h-10.8c-2 0-3.9-0.1-5.5-0.3v14.8c1.8 0 3.7 0.1 5.9 0.1m43.9-98.5h15.7v-15.7h-15.7zm16.1 10.5h-16v88h16z"/><path class="st0" d="m451 273.78h6v-35.3h12.7v-5.5h-31.4v5.4h12.7zm-37.1-41.3c-10.4 0-15.2 6-15.2 15v12c0 9 4.7 15 15.2 15 10.3 0 15.1-6 15.1-15v-1.1h-5.8v1.7c0 5.3-2.6 9-9.2 9-6.6 0-9.2-3.8-9.2-9.4v-11.9c0-6 2.6-9.7 9.2-9.7 6.6 0 9.2 3.6 9.2 9.2v1.4h5.8v-1.1c-0.1-9.1-4.7-15.1-15.1-15.1m-28 0.5h-25v40.8h26.2v-5.4h-20.4v-12.6h16.6v-5.4h-16.6v-11.9h19.1v-5.5zm-40.8 0h-5.9v27.4c0 5.7-1.5 8.2-7.6 8.2h-3.2v5.4h4.5c8.6 0 12.2-4 12.2-12.8zm-52.5 26.7v-12.6c0-5.3 2.6-9.2 9.8-9.2 7.3 0 9.9 3.9 9.9 9.2v12.6c0 5.2-2.6 9.2-9.9 9.2-7.2 0-9.8-3.9-9.8-9.2m25.7-0.3v-12.5c0-8.6-5-14.4-15.8-14.4s-15.8 5.8-15.8 14.4v12.5c0 9 5 15 15.8 15s15.8-6 15.8-15m-44.2-13.9c0-7.3-4.6-12.5-15.1-12.5h-15.3v40.8h5.9v-14.6h10.2l8 14.6h6.9l-9-15.8c5.6-1.6 8.4-5.5 8.4-11.5zm-15.3 8.6h-9.2v-15.6h9.2c6.5 0 9.4 2.8 9.4 7.9v0.1c-0.1 4.9-2.9 7.6-9.4 7.6m-34.4-6.1c0 4.3-2.8 7.8-9.5 7.8h-9v-17.3h9c6.7 0 9.5 3.4 9.5 7.8zm5.9 0.4v-2.4c0-7-4.8-12.9-15.2-12.9h-15.1v40.8h5.9v-12.6h10.1c9.9 0 14.3-5.9 14.3-12.9"/></g><g transform="matrix(.66673 0 0 .66673 -17.497 -.82818)">
	
	
	<path class="st0" d="m213.17 502.98h-164.21v16.486h164.21zm-81.998-424.3c-7.5924 0-13.666-6.0739-13.666-13.666s6.0739-13.666 13.666-13.666 13.666 6.0739 13.666 13.666c-0.21692 7.5924-6.2908 13.666-13.666 13.666m-82.215 59.871h164.21v-16.486h-73.971v-16.052h32.756v-81.998h-82.214v82.214h33.189v16.052h-73.971zm145.34 236.45h-62.691v-62.691h62.691zm-63.776-63.993h-62.691v-62.691h62.691zm82.648-155.32h-164.21l-0.21692 328.86h164.21z" fill="#231f20" stroke-width="2.1692"/>
</g></svg>
