<?xml version="1.0" encoding="utf-8"?>
<!-- Generator: Adobe Illustrator 22.0.1, SVG Export Plug-In . SVG Version: 6.00 Build 0)  -->
<svg version="1.1" id="Layer_1" xmlns="http://www.w3.org/2000/svg" xmlns:xlink="http://www.w3.org/1999/xlink" x="0px" y="0px"
	 viewBox="0 0 1149.1 557.9" style="enable-background:new 0 0 1149.1 557.9;" xml:space="preserve">
<style type="text/css">
	.st0{fill:#231F20;}
</style>
<g>
	<path class="st0" d="M834.2,511.2h-4.5l5.5,11v6.2h4.2v-6.2l5.5-11h-4.5l-3.2,7.5L834.2,511.2z M827.8,511.2h-14.4v3.2h5.1v14h4.2
		v-14h5.2V511.2z M810.4,511.2h-4.1v17.2h4.1V511.2z M802.1,511.2h-4.1v10.7l-6.1-10.7h-4.1v17.2h4.1v-10.7l6.1,10.7h4.1V511.2z
		 M774.7,514.4h2.6c0.8,0,1.4,0.2,1.8,0.6c0.4,0.4,0.6,1,0.6,1.7c0,0.7-0.2,1.3-0.6,1.7c-0.4,0.4-1,0.6-1.8,0.6h-2.6V514.4z
		 M780,528.4h4.4v-0.2l-3.6-7c1-0.5,1.8-1.1,2.3-1.9c0.5-0.8,0.7-1.8,0.7-3c0-1.7-0.6-2.9-1.7-3.8c-1.2-0.9-2.7-1.4-4.8-1.4h-6.8
		v17.2h4.2v-6.1h2.2L780,528.4z M766.3,518h-6.5v-3.6h7.7v-3.2h-11.9v17.2h11.9v-3.2h-7.7v-4.1h6.5V518z M752.6,511.2h-14.4v3.2h5.1
		v14h4.1v-14h5.2V511.2z M734.6,518h-6.5v-3.6h7.7v-3.2h-11.9v17.2h11.9v-3.2h-7.7v-4.1h6.5V518z M713,516l1.9,6h-3.7L713,516z
		 M716.9,528.4h4.5l-6.4-17.2h-3.9l-6.3,17.2h4.4l1-3.2h5.7L716.9,528.4z M686.3,511.2h-4.5l5.5,11v6.2h4.2v-6.2l5.5-11h-4.5
		l-3.2,7.5L686.3,511.2z M671,514.4h2c0.9,0,1.6,0.2,2,0.5c0.4,0.3,0.6,0.8,0.6,1.6c0,0.6-0.2,1.1-0.6,1.4c-0.4,0.3-1,0.5-1.9,0.5
		H671V514.4z M673.9,521.1c1.4,0,2.1,0.7,2.1,2.2c0,0.6-0.2,1.1-0.6,1.4c-0.4,0.3-1,0.5-1.7,0.5H671v-4.1H673.9z M673.9,528.4
		c2.1,0,3.7-0.4,4.7-1.3c1.1-0.8,1.6-2.1,1.6-3.8c0-0.9-0.2-1.7-0.7-2.4c-0.5-0.6-1.2-1.1-2.1-1.3c0.8-0.3,1.4-0.8,1.8-1.4
		c0.4-0.6,0.6-1.4,0.6-2.3c0-1.5-0.6-2.7-1.7-3.5c-1.2-0.8-2.8-1.2-5.1-1.2h-6.2v17.2H673.9z M649.1,514.4c1.2,0,2.2,0.4,2.8,1.3
		c0.6,0.8,1,2.1,1,3.8v0.7c0,1.7-0.3,2.9-1,3.8c-0.6,0.8-1.6,1.3-2.7,1.3h-1.4v-10.8H649.1z M649.2,528.4c1.5,0,2.8-0.4,4-1.1
		s2.1-1.7,2.8-2.9c0.7-1.2,1-2.7,1-4.2v-0.8c0-1.6-0.4-3-1-4.2c-0.7-1.3-1.6-2.2-2.8-2.9c-1.2-0.7-2.6-1-4.1-1h-5.5v17.2H649.2z
		 M639.3,518h-6.5v-3.6h7.7v-3.2h-11.9v17.2h11.9v-3.2h-7.7v-4.1h6.5V518z M615.7,514.4h2.6c0.8,0,1.4,0.2,1.8,0.6
		c0.4,0.4,0.6,1,0.6,1.7c0,0.7-0.2,1.3-0.6,1.7c-0.4,0.4-1,0.6-1.8,0.6h-2.6V514.4z M620.9,528.4h4.4v-0.2l-3.6-7
		c1-0.5,1.8-1.1,2.3-1.9c0.5-0.8,0.7-1.8,0.7-3c0-1.7-0.6-2.9-1.7-3.8c-1.2-0.9-2.7-1.4-4.8-1.4h-6.8v17.2h4.2v-6.1h2.2L620.9,528.4
		z M607.3,518h-6.5v-3.6h7.7v-3.2h-11.9v17.2h11.9v-3.2h-7.7v-4.1h6.5V518z M585.2,511.2h-3.5l-2.4,10.8l-2-10.8h-4.1l3.7,17.2h4.3
		l2.3-9.8l2.3,9.8h4.3l3.7-17.2h-4.1l-2,10.8L585.2,511.2z M566.5,520.2c0,1.7-0.3,3-0.9,3.8c-0.6,0.9-1.4,1.3-2.4,1.3
		c-1.1,0-1.9-0.5-2.5-1.4c-0.6-0.9-0.8-2.2-0.8-3.9l0-1.3c0.1-3.1,1.2-4.7,3.3-4.7c1.1,0,1.9,0.4,2.5,1.3c0.6,0.9,0.9,2.2,0.9,3.9
		V520.2z M570.8,519.3c0-1.7-0.3-3.1-1-4.4c-0.6-1.3-1.5-2.3-2.7-3c-1.1-0.7-2.4-1-3.9-1c-1.5,0-2.8,0.4-3.9,1.1
		c-1.2,0.7-2,1.7-2.7,3s-0.9,2.8-0.9,4.5v1c0,1.6,0.4,3.1,1,4.3c0.6,1.3,1.5,2.2,2.7,2.9c1.1,0.7,2.4,1,3.9,1s2.8-0.3,3.9-1
		c1.1-0.7,2-1.7,2.7-3c0.6-1.3,0.9-2.8,0.9-4.5V519.3z M543.2,514.4h2.8c0.7,0,1.3,0.3,1.8,0.7c0.4,0.5,0.6,1.1,0.6,1.9
		c0,0.7-0.2,1.3-0.6,1.7c-0.4,0.4-1,0.6-1.8,0.6h-2.7V514.4z M545.9,522.5c2.1,0,3.7-0.5,4.9-1.5c1.2-1,1.8-2.3,1.8-4
		c0-1.1-0.3-2.1-0.8-3c-0.6-0.9-1.3-1.6-2.4-2.1c-1-0.5-2.2-0.7-3.5-0.7h-6.9v17.2h4.2v-5.8H545.9z"/>
	<path class="st0" d="M890.9,489.6h4.7c7.4,0.7,14.2,4.4,19.3,9.8c10.5,11,16.3,26.5,29.6,34.7c9.7,5.9,23.2,1.1,27.9-8.9
		c2.4,0,4.8,0,7.3,0c-3.3,10.2-13,17.5-23.6,18.5h-3.9c-6.5-0.5-12.8-3-17.8-7.4c-7.2-6.1-11.8-14.4-17.3-21.8
		c-4.8-6.6-9.7-13.9-17.6-16.9c-9.8-3.7-21.7,2.1-25.3,11.8c-3.1,8-0.6,18,6.4,23.1c5.3,4.1,12.6,5.6,18.9,3.2
		c7-2.5,12.2-8.3,16.2-14.4c1.6,2.3,3.1,4.5,4.6,6.8c-6.2,7.8-14.8,14.5-25.1,15.5h-4.2c-12.9-0.9-24.1-11.9-25-24.8v-4.2
		C866.9,501.6,878,490.5,890.9,489.6"/>
	<path class="st0" d="M951.9,489.6h3.9c13,0.9,24.1,12,25.2,25v6.6c-10.7,0.1-21.5,0-32.2,0c0-1.9,0-3.9,0-5.8c8.5,0,17,0,25.5,0
		c-0.6-3.4-1.4-7-3.4-9.9c-5-7.6-15.5-10.7-23.8-7.4c-6.7,2.5-11.7,7.9-15.6,13.7c-1.5-2.1-3-4.3-4.4-6.5
		C933,497.4,941.6,490.5,951.9,489.6"/>
	<path class="st0" d="M993.3,247.1h-16v88h16V247.1z M992.7,220.8H977v15.7h15.7V220.8z M616.1,332.3v-54.2c0-2.8-0.3-5.5-0.7-8h-17
		c1.2,2.6,1.8,5.6,1.8,8.8v17.4c0,10.8-5.7,18.6-20.8,18.6s-20.7-7.9-20.7-18.6V279c0-10.8,5.7-18.6,20.7-18.6c4.5,0,8,0.8,11,2
		v-15.8c-3.3-0.6-6.9-1-11-1c-25.3,0-36.6,13-36.6,32.5v19.5c0,19.3,9.5,32.2,31,32.2c15.4,0,22-2.9,26.5-8.3v10.8
		c0,10.5-5.1,18.3-21.4,18.3c-12.6,0-20.1-5.6-20.1-13.8h-15.5v1.3c0,17.1,14.4,27.1,34.9,27.1h2.3
		C602.2,365.3,616.1,355.1,616.1,332.3 M688.2,260.2h7.2v-14.6h-6c-30.8,0-41,8.1-41,37.2v52.3h16v-52.1
		C664.3,264.2,669.3,260.2,688.2,260.2 M789.2,315.7c0.8-2.8,1.3-5.8,1.3-9.1v-28.9c0-19.3-11-32.2-33.2-32.2h-2.9
		c-23.1,0-34,9.8-34,27.8h15.5c0-9.5,8.1-13.2,19-13.2c13.9,0,19.6,7.2,19.6,17.3v7.5c-4.7-1.9-11.6-3.5-23-3.5
		c-25.3,0-34.1,10.5-34.1,26.7v1.5c0,18.2,13.3,26.9,34.4,26.9h3.2c3.1,0,6.1-0.3,9-0.7v-14.7c-2.9,0.9-6.2,1.5-10.2,1.5
		c-13,0-20.5-4.2-20.5-13.5V308c0-9.4,5.9-13.5,20.5-13.5c15.1,0,20.7,4.1,20.7,13.5v0.9c0,2.5-0.9,4.9-2.4,6.9H789.2z M826.4,247.1
		H815V261h11.1v74.1h16V261H869v-13.9h-26.7c1.3-10.8,8.2-12.9,25.6-12.9h1v-13.3h-5.6C838.7,220.8,828.3,226.7,826.4,247.1
		 M940.8,220.8c-24.8,0-35.1,5.9-37.1,26.2h-11.4V261h11.1v74.1h16V261h26.9v-13.9h-26.7c1.3-10.8,8.2-12.9,25.6-12.9h1v-13.3H940.8
		z M1053.7,261h26.8v-13.9h-26.8v-18.5h-16v18.5h-12.6V261h12.6v38.2c0,4,0.2,7.6,0.6,10.8h16.2c-0.5-2.5-0.8-5.7-0.8-9.5V261z
		 M1071,335.1h10.4v-14.6h-10.8c-2,0-3.9-0.1-5.5-0.3v14.8C1066.9,335,1068.8,335.1,1071,335.1 M1114.9,236.6h15.7v-15.7h-15.7
		V236.6z M1131,247.1h-16v88h16V247.1z"/>
</g>
<path class="st0" d="M658.2,14.3h-25v40.8h26.2v-5.4H639V37.1h16.6v-5.4H639V19.7h19.1V14.3z M585.9,55.1h5.9V37H611v18.1h5.9V14.3
	H611v17.2h-19.1V14.3h-5.9V55.1z M555.4,55.1h6V19.7h12.7v-5.4h-31.4v5.4h12.7V55.1z"/>
<g>
	<path class="st0" d="M793.7,442.8h6v-35.3h12.7V402H781v5.4h12.7V442.8z M756.6,401.5c-10.4,0-15.2,6-15.2,15v12
		c0,9,4.7,15,15.2,15c10.3,0,15.1-6,15.1-15v-1.1h-5.8v1.7c0,5.3-2.6,9-9.2,9c-6.6,0-9.2-3.8-9.2-9.4v-11.9c0-6,2.6-9.7,9.2-9.7
		s9.2,3.6,9.2,9.2v1.4h5.8v-1.1C771.6,407.5,767,401.5,756.6,401.5 M728.6,402h-25v40.8h26.2v-5.4h-20.4v-12.6h16.6v-5.4h-16.6
		v-11.9h19.1V402z M687.8,402h-5.9v27.4c0,5.7-1.5,8.2-7.6,8.2h-3.2v5.4h4.5c8.6,0,12.2-4,12.2-12.8V402z M635.3,428.7v-12.6
		c0-5.3,2.6-9.2,9.8-9.2c7.3,0,9.9,3.9,9.9,9.2v12.6c0,5.2-2.6,9.2-9.9,9.2C637.9,437.9,635.3,434,635.3,428.7 M661,428.4v-12.5
		c0-8.6-5-14.4-15.8-14.4c-10.8,0-15.8,5.8-15.8,14.4v12.5c0,9,5,15,15.8,15C656,443.4,661,437.4,661,428.4 M616.8,414.5
		c0-7.3-4.6-12.5-15.1-12.5h-15.3v40.8h5.9v-14.6h10.2l8,14.6h6.9l-9-15.8c5.6-1.6,8.4-5.5,8.4-11.5V414.5z M601.5,423.1h-9.2v-15.6
		h9.2c6.5,0,9.4,2.8,9.4,7.9v0.1C610.8,420.4,608,423.1,601.5,423.1 M567.1,417c0,4.3-2.8,7.8-9.5,7.8h-9v-17.3h9
		c6.7,0,9.5,3.4,9.5,7.8V417z M573,417.4V415c0-7-4.8-12.9-15.2-12.9h-15.1v40.8h5.9v-12.6h10.1C568.6,430.3,573,424.4,573,417.4"/>
	<path class="st0" d="M616.1,160.8V79.2h-16V111c-3.8-4-11.3-8.5-25.5-8.5c-22.3,0-31.9,14.6-31.9,32.4v25.9c0,2.4,0.2,4.7,0.6,6.9
		h16.6c-0.8-2.3-1.2-4.9-1.2-7.8v-24c0-11,5.7-18.7,20.7-18.7c15.1,0,20.8,7.8,20.8,18.7v24c0,11-5.7,18.7-20.8,18.7
		c-3.6,0-6.7-0.5-9.3-1.3v15.2c2.9,0.5,6,0.8,9.3,0.8C604.7,193.3,616.1,178.7,616.1,160.8 M688,117.2h7.2v-14.6h-6
		c-30.8,0-41,8.1-41,37.2V192h16v-52.1C664.1,121.1,669.1,117.2,688,117.2 M791.9,161V135c0-18.2-11.7-32.5-36.8-32.5
		c-25.2,0-36.8,14.4-36.8,32.5V161c0,2.3,0.2,4.6,0.6,6.7h16.6c-0.8-2.4-1.2-5-1.2-7.9v-23.9c0-11,5.7-18.7,20.8-18.7
		c15.1,0,20.8,7.8,20.8,18.7v23.9c0,11.1-5.7,18.9-20.8,18.9c-3,0-5.5-0.4-7.8-0.9v15.1c2.4,0.3,5,0.5,7.8,0.5
		C780.2,193.3,791.9,179.3,791.9,161 M840.9,135.8c0-3.7,0.7-7,2.2-9.8H826c-0.6,2.8-1,5.9-1,9.1v57h16V135.8z M882.4,192h16v-57
		c0-19.5-11.1-32.5-36.6-32.5c-4.1,0-7.8,0.4-11.1,1v15.7c3-1.3,6.6-2.1,11.1-2.1c14.9,0,20.7,7.6,20.7,18.6V192z M944.1,140.6v-5
		c0-10.8,5.7-18.7,21.8-18.7c15.5,0,21.5,7.2,21.5,18.6v5.1H944.1z M1002.8,167.4v-2.5h-15.4v0.9c0,8.8-6.6,13.2-21.4,13.2
		c-17.7,0-22-9.2-22-18.5v-7h58.7v-18.9c0-19.3-12-32.1-36.9-32.1c-25.2,0-37.2,12.9-37.2,32.1v26.8c0,19.2,11.6,31.9,37.3,31.9
		C991.7,193.3,1002.8,181.2,1002.8,167.4"/>
	<path class="st0" d="M284.6,313.5h-75.7v7.6h75.7V313.5z M246.8,117.9c-3.5,0-6.3-2.8-6.3-6.3c0-3.5,2.8-6.3,6.3-6.3
		c3.5,0,6.3,2.8,6.3,6.3C253,115.1,250.2,117.9,246.8,117.9 M208.9,145.5h75.7v-7.6h-34.1v-7.4h15.1V92.7h-37.9v37.9H243v7.4h-34.1
		V145.5z M275.9,254.5H247v-28.9h28.9V254.5z M246.5,225h-28.9v-28.9h28.9V225z M472.5,248.2v-37.9h-15.1v-56.8h-7.6v56.8h-15.1
		v15.1h-150v-42.9l72.7-103.8h28.4l39.4,29.7l4.6-6l-43.8-33V40.9h-37.8l-39.4-29.7l-4.6,6l43.8,33v28.5h0.1l-63.5,90.6v-15.9h-75.7
		v13.1l-61.5-87.9h0.1V50.3l43.8-33l-4.6-6l-39.4,29.7h-37.8v28.5l-43.8,33l4.6,6l39.4-29.7h28.4l70.8,101.1v45.6h-150v-15.1H43.7
		v-56.8h-7.6v56.8H21v37.9h15.1V305h7.6v-56.8h15.1V233h150v44.5l-70.5,100.7h-28.7l-39.4-29.7l-4.6,6l43.8,33v28.5h37.8l39.4,29.7
		l4.6-6l-43.8-33v-28.2l61.4-87.7V305h75.7v-17l63.3,90.5v28.2l-43.8,33l4.6,6l39.4-29.7h37.8l0-28.5l43.8-33l-4.6-6l-39.4,29.7H357
		l-72.4-103.4V233h150v15.1h15.1V305h7.6v-56.8H472.5z"/>
</g>
</svg>
