<?xml version="1.0" encoding="utf-8"?>
<!-- Generator: Adobe Illustrator 22.0.1, SVG Export Plug-In . SVG Version: 6.00 Build 0)  -->
<svg version="1.1" id="Layer_1" xmlns="http://www.w3.org/2000/svg" xmlns:xlink="http://www.w3.org/1999/xlink" x="0px" y="0px"
	 viewBox="0 0 512 512" style="enable-background:new 0 0 512 512;" xml:space="preserve">
<g>
	<path d="M298.3,350.4h-84.5v8.5h84.5V350.4z M256,132c-3.9,0-7-3.1-7-7c0-3.9,3.1-7,7-7c3.9,0,7,3.1,7,7
		C263,128.9,259.9,132,256,132 M213.7,162.9h84.5v-8.5h-38v-8.2h16.9v-42.3h-42.3v42.3h16.9v8.2h-38V162.9z M288.6,284.5h-32.3
		v-32.3h32.3V284.5z M255.7,251.6h-32.3v-32.3h32.3V251.6z M508,277.4v-42.3h-16.9v-63.4h-8.5v63.4h-16.9v16.9H298.3v-47.9
		l81.2-115.9h31.7l43.9,33.1l5.1-6.8l-48.9-36.9V46.1h-42.2l-43.9-33.1l-5.1,6.8L369,56.6v31.8h0.1l-70.8,101.2v-17.7h-84.5v14.7
		L145,88.3h0.1V56.6l48.9-36.9l-5.1-6.8l-43.9,33.1h-42.2v31.8L54,114.7l5.1,6.8L103,88.3h31.7l79,112.8v50.9H46.3v-16.9H29.4v-63.4
		h-8.5v63.4H4v42.3h16.9v63.4h8.5v-63.4h16.9v-16.9h167.5v49.7L135,422.6h-32l-44-33.1l-5.1,6.8l48.9,36.9v31.8h42.2L189,498
		l5.1-6.8l-48.9-36.9v-31.5l68.6-97.9v15.9h84.5v-19l70.7,101v31.5l-48.9,36.9l5.1,6.8l44-33.1h42.2l0-31.8l48.9-36.9l-5.1-6.8
		l-43.9,33.1h-32l-80.8-115.5v-46.6h167.5v16.9h16.9v63.4h8.5v-63.4H508z"/>
</g>
</svg>
