<?xml version="1.0" encoding="UTF-8"?>
<!-- Generator: Adobe Illustrator 22.0.1, SVG Export Plug-In . SVG Version: 6.00 Build 0)  -->
<svg width="524.73" height="524.73" version="1.1" viewBox="0 0 524.73 524.73" xml:space="preserve" xmlns="http://www.w3.org/2000/svg" xmlns:cc="http://creativecommons.org/ns#" xmlns:dc="http://purl.org/dc/elements/1.1/" xmlns:rdf="http://www.w3.org/1999/02/22-rdf-syntax-ns#"><metadata><rdf:RDF><cc:Work rdf:about=""><dc:format>image/svg+xml</dc:format><dc:type rdf:resource="http://purl.org/dc/dcmitype/StillImage"/><dc:title/></cc:Work></rdf:RDF></metadata>
<g transform="matrix(1.9401 0 0 1.9401 -234.3 -186.58)">
	<path d="m298.3 350.4h-84.5v8.5h84.5zm-42.3-218.4c-3.9 0-7-3.1-7-7s3.1-7 7-7 7 3.1 7 7-3.1 7-7 7m-42.3 30.9h84.5v-8.5h-38v-8.2h16.9v-42.3h-42.3v42.3h16.9v8.2h-38zm74.9 121.6h-32.3v-32.3h32.3zm-32.9-32.9h-32.3v-32.3h32.3zm42.6-79.7h-84.5v168.9h84.5v-168.9z"/>
</g>
</svg>
